<?xml version="1.0" standalone="no"?>
<!DOCTYPE svg PUBLIC "-//W3C//DTD SVG 20010904//EN"
 "http://www.w3.org/TR/2001/REC-SVG-20010904/DTD/svg10.dtd">
<svg version="1.0" xmlns="http://www.w3.org/2000/svg"
 width="260.000000pt" height="260.000000pt" viewBox="0 0 260.000000 260.000000"
 preserveAspectRatio="xMidYMid meet">
<metadata>
Created by potrace 1.14, written by Peter Selinger 2001-2017
</metadata>
<g transform="translate(0.000000,260.000000) scale(0.100000,-0.100000)"
fill="#000000" stroke="none">
<path d="M752 2128 c-7 -7 -12 -18 -12 -25 0 -7 -128 -365 -285 -795 -157
-430 -283 -788 -280 -796 3 -7 13 -12 22 -10 12 2 37 58 89 198 l71 195 191 3
192 2 2 -202 c3 -195 4 -203 23 -203 20 0 20 8 25 772 l5 772 169 -220 c167
-216 195 -243 205 -194 2 11 58 101 125 200 l121 180 5 -745 c5 -737 5 -745
25 -745 20 0 20 7 20 800 0 737 -1 800 -17 803 -11 2 -56 -57 -158 -210 -79
-117 -146 -216 -150 -221 -6 -7 -310 379 -338 430 -14 25 -32 29 -50 11z m-12
-688 l0 -490 -181 0 c-141 0 -180 3 -177 13 61 170 353 967 355 967 2 0 3
-220 3 -490z"/>
</g>
</svg>
